<svg width="668" height="100" viewBox="0 0 668 100" fill="none" xmlns="http://www.w3.org/2000/svg">
<mask id="path-1-inside-1_566_2" fill="white">
<path d="M50 0C77.6142 0 100 22.3858 100 50C100 77.6142 77.6142 100 50 100C22.3858 100 0 77.6142 0 50C0 33.642 7.85573 19.1192 20 9.99707V23.5713C20 27.9107 23.518 31.4287 27.8574 31.4287C32.1967 31.4286 35.7139 27.9106 35.7139 23.5713V2.06934C40.2404 0.722175 45.0359 0 50 0ZM67.8574 41.4287C57.9952 41.4287 50 49.4239 50 59.2861C50.0002 69.1482 57.9953 77.1426 67.8574 77.1426C77.7194 77.1424 85.7136 69.1481 85.7139 59.2861C85.7139 49.424 77.7195 41.4289 67.8574 41.4287Z"/>
</mask>
<path d="M50 0C77.6142 0 100 22.3858 100 50C100 77.6142 77.6142 100 50 100C22.3858 100 0 77.6142 0 50C0 33.642 7.85573 19.1192 20 9.99707V23.5713C20 27.9107 23.518 31.4287 27.8574 31.4287C32.1967 31.4286 35.7139 27.9106 35.7139 23.5713V2.06934C40.2404 0.722175 45.0359 0 50 0ZM67.8574 41.4287C57.9952 41.4287 50 49.4239 50 59.2861C50.0002 69.1482 57.9953 77.1426 67.8574 77.1426C77.7194 77.1424 85.7136 69.1481 85.7139 59.2861C85.7139 49.424 77.7195 41.4289 67.8574 41.4287Z" fill="#007ACC"/>
<path d="M20 9.99707H22V5.99341L18.7988 8.39795L20 9.99707ZM27.8574 31.4287V33.4287H27.8575L27.8574 31.4287ZM35.7139 2.06934L35.1434 0.15243L33.7139 0.577871V2.06934H35.7139ZM67.8574 41.4287L67.8575 39.4287H67.8574V41.4287ZM50 59.2861H48V59.2862L50 59.2861ZM67.8574 77.1426V79.1426H67.8575L67.8574 77.1426ZM85.7139 59.2861L87.7139 59.2862V59.2861H85.7139ZM50 0V2C76.5097 2 98 23.4903 98 50H100H102C102 21.2812 78.7188 -2 50 -2V0ZM100 50H98C98 76.5097 76.5097 98 50 98V100V102C78.7188 102 102 78.7188 102 50H100ZM50 100V98C23.4903 98 2 76.5097 2 50H0H-2C-2 78.7188 21.2812 102 50 102V100ZM0 50H2C2 34.2976 9.53812 20.3568 21.2012 11.5962L20 9.99707L18.7988 8.39795C6.17335 17.8815 -2 32.9863 -2 50H0ZM20 9.99707H18V23.5713H20H22V9.99707H20ZM20 23.5713H18C18 29.0152 22.4135 33.4287 27.8574 33.4287V31.4287V29.4287C24.6226 29.4287 22 26.8061 22 23.5713H20ZM27.8574 31.4287L27.8575 33.4287C33.3015 33.4285 37.7139 29.0149 37.7139 23.5713H35.7139H33.7139C33.7139 26.8063 31.0918 29.4286 27.8574 29.4287L27.8574 31.4287ZM35.7139 23.5713H37.7139V2.06934H35.7139H33.7139V23.5713H35.7139ZM35.7139 2.06934L36.2844 3.98624C40.6273 2.6937 45.2308 2 50 2V0V-2C44.841 -2 39.8534 -1.24935 35.1434 0.15243L35.7139 2.06934ZM67.8574 41.4287V39.4287C56.8906 39.4287 48 48.3193 48 59.2861H50H52C52 50.5285 59.0998 43.4287 67.8574 43.4287V41.4287ZM50 59.2861L48 59.2862C48.0003 70.2528 56.8909 79.1426 67.8574 79.1426V77.1426V75.1426C59.0998 75.1426 52.0002 68.0435 52 59.2861L50 59.2861ZM67.8574 77.1426L67.8575 79.1426C78.824 79.1424 87.7136 70.2526 87.7139 59.2862L85.7139 59.2861L83.7139 59.2861C83.7137 68.0435 76.6148 75.1424 67.8574 75.1426L67.8574 77.1426ZM85.7139 59.2861H87.7139C87.7139 48.3195 78.8242 39.4289 67.8575 39.4287L67.8574 41.4287L67.8574 43.4287C76.6148 43.4288 83.7139 50.5285 83.7139 59.2861H85.7139Z" fill="#007ACC" mask="url(#path-1-inside-1_566_2)"/>
<path d="M116.911 76V23.2H133.631L156.271 58.64H157.231L156.431 23.2H168.991V76H153.871L129.631 38.56H128.751L129.471 76H116.911ZM203.394 77.12C199.554 77.12 196.087 76.5333 192.994 75.36C189.9 74.1867 187.234 72.4533 184.994 70.16C182.807 67.8667 181.127 65.04 179.954 61.68C178.78 58.2667 178.194 54.32 178.194 49.84C178.194 43.5467 179.287 38.3733 181.474 34.32C183.714 30.2133 186.78 27.1467 190.674 25.12C194.567 23.0933 198.967 22.08 203.874 22.08C207.66 22.08 211.1 22.6667 214.194 23.84C217.287 25.0133 219.927 26.7467 222.114 29.04C224.354 31.3333 226.06 34.2133 227.234 37.68C228.46 41.0933 229.074 45.04 229.074 49.52C229.074 54.16 228.434 58.2133 227.154 61.68C225.927 65.0933 224.167 67.9467 221.874 70.24C219.634 72.5333 216.94 74.2667 213.794 75.44C210.647 76.56 207.18 77.12 203.394 77.12ZM203.794 67.04C206.407 67.04 208.594 66.4 210.354 65.12C212.167 63.7867 213.527 61.8933 214.434 59.44C215.394 56.9333 215.874 53.8933 215.874 50.32C215.874 46.5333 215.394 43.3333 214.434 40.72C213.474 38.0533 212.06 36.0533 210.194 34.72C208.38 33.3333 206.14 32.64 203.474 32.64C200.914 32.64 198.727 33.3067 196.914 34.64C195.154 35.92 193.794 37.84 192.834 40.4C191.874 42.9067 191.394 46 191.394 49.68C191.394 52.4533 191.66 54.9333 192.194 57.12C192.78 59.2533 193.58 61.0667 194.594 62.56C195.607 64 196.887 65.12 198.434 65.92C200.034 66.6667 201.82 67.04 203.794 67.04ZM248.929 76L231.729 23.2H245.809L257.409 65.2H258.529L270.129 23.2H284.049L266.849 76H248.929ZM279.776 76L297.696 23.2H316.576L334.496 76H320.416L307.776 33.28H306.496L293.856 76H279.776ZM290.416 66.08V57.44H325.776V66.08H290.416Z" fill="#007ACC"/>
<rect x="342" y="18" width="326" height="64" rx="10" fill="#007ACC"/>
<path d="M359.856 76V23.2H379.136L392.896 61.2H393.296L406.736 23.2H425.136V76H412.976L413.696 36.32H412.816L397.536 76H386.976L372.016 36.32H371.136L371.856 76H359.856ZM459.542 77.12C455.702 77.12 452.236 76.5333 449.142 75.36C446.049 74.1867 443.382 72.4533 441.142 70.16C438.956 67.8667 437.276 65.04 436.102 61.68C434.929 58.2667 434.342 54.32 434.342 49.84C434.342 43.5467 435.436 38.3733 437.622 34.32C439.862 30.2133 442.929 27.1467 446.822 25.12C450.716 23.0933 455.116 22.08 460.022 22.08C463.809 22.08 467.249 22.6667 470.342 23.84C473.436 25.0133 476.076 26.7467 478.262 29.04C480.502 31.3333 482.209 34.2133 483.382 37.68C484.609 41.0933 485.222 45.04 485.222 49.52C485.222 54.16 484.582 58.2133 483.302 61.68C482.076 65.0933 480.316 67.9467 478.022 70.24C475.782 72.5333 473.089 74.2667 469.942 75.44C466.796 76.56 463.329 77.12 459.542 77.12ZM459.942 67.04C462.556 67.04 464.742 66.4 466.502 65.12C468.316 63.7867 469.676 61.8933 470.582 59.44C471.542 56.9333 472.022 53.8933 472.022 50.32C472.022 46.5333 471.542 43.3333 470.582 40.72C469.622 38.0533 468.209 36.0533 466.342 34.72C464.529 33.3333 462.289 32.64 459.622 32.64C457.062 32.64 454.876 33.3067 453.062 34.64C451.302 35.92 449.942 37.84 448.982 40.4C448.022 42.9067 447.542 46 447.542 49.68C447.542 52.4533 447.809 54.9333 448.342 57.12C448.929 59.2533 449.729 61.0667 450.742 62.56C451.756 64 453.036 65.12 454.582 65.92C456.182 66.6667 457.969 67.04 459.942 67.04ZM494.231 76V23.2H510.951L533.591 58.64H534.551L533.751 23.2H546.311V76H531.191L506.951 38.56H506.071L506.791 76H494.231ZM557.434 76V23.2H570.394V76H557.434ZM566.794 76V65.6H599.354V76H566.794ZM566.794 54.08V44.72H595.274V54.08H566.794ZM566.794 33.52V23.2H599.114V33.52H566.794ZM622.775 76V59.76L603.015 23.2H618.535L629.015 48.24H629.495L639.975 23.2H655.335L635.735 59.6V76H622.775Z" fill="white"/>
</svg>
