<svg width="534" height="100" viewBox="0 0 534 100" fill="none" xmlns="http://www.w3.org/2000/svg">
<mask id="path-1-inside-1_566_2" fill="white">
<path d="M50 0C77.6142 0 100 22.3858 100 50C100 77.6142 77.6142 100 50 100C22.3858 100 0 77.6142 0 50C0 33.642 7.85573 19.1191 20 9.99707V23.5713C20 27.9107 23.518 31.4287 27.8574 31.4287C32.1967 31.4286 35.7139 27.9106 35.7139 23.5713V2.06934C40.2404 0.722175 45.0359 0 50 0ZM67.8574 41.4287C57.9952 41.4287 50 49.4239 50 59.2861C50.0002 69.1482 57.9953 77.1426 67.8574 77.1426C77.7194 77.1424 85.7136 69.1481 85.7139 59.2861C85.7139 49.424 77.7195 41.4289 67.8574 41.4287Z"/>
</mask>
<path d="M50 0C77.6142 0 100 22.3858 100 50C100 77.6142 77.6142 100 50 100C22.3858 100 0 77.6142 0 50C0 33.642 7.85573 19.1191 20 9.99707V23.5713C20 27.9107 23.518 31.4287 27.8574 31.4287C32.1967 31.4286 35.7139 27.9106 35.7139 23.5713V2.06934C40.2404 0.722175 45.0359 0 50 0ZM67.8574 41.4287C57.9952 41.4287 50 49.4239 50 59.2861C50.0002 69.1482 57.9953 77.1426 67.8574 77.1426C77.7194 77.1424 85.7136 69.1481 85.7139 59.2861C85.7139 49.424 77.7195 41.4289 67.8574 41.4287Z" fill="#007ACC"/>
<path d="M20 9.99707H22V5.99341L18.7988 8.39795L20 9.99707ZM27.8574 31.4287L27.8574 33.4287L27.8575 33.4287L27.8574 31.4287ZM35.7139 2.06934L35.1434 0.15243L33.7139 0.577871V2.06934H35.7139ZM67.8574 41.4287L67.8575 39.4287H67.8574V41.4287ZM50 59.2861L48 59.2861L48 59.2862L50 59.2861ZM67.8574 77.1426L67.8574 79.1426L67.8575 79.1426L67.8574 77.1426ZM85.7139 59.2861L87.7139 59.2862V59.2861H85.7139ZM50 0V2C76.5097 2 98 23.4903 98 50H100H102C102 21.2812 78.7188 -2 50 -2V0ZM100 50H98C98 76.5097 76.5097 98 50 98V100V102C78.7188 102 102 78.7188 102 50H100ZM50 100V98C23.4903 98 2 76.5097 2 50H0H-2C-2 78.7188 21.2812 102 50 102V100ZM0 50H2C2 34.2976 9.53812 20.3568 21.2012 11.5962L20 9.99707L18.7988 8.39795C6.17335 17.8815 -2 32.9863 -2 50H0ZM20 9.99707H18V23.5713H20H22V9.99707H20ZM20 23.5713H18C18 29.0152 22.4135 33.4287 27.8574 33.4287V31.4287V29.4287C24.6226 29.4287 22 26.8061 22 23.5713H20ZM27.8574 31.4287L27.8575 33.4287C33.3015 33.4285 37.7139 29.0149 37.7139 23.5713H35.7139H33.7139C33.7139 26.8063 31.0918 29.4286 27.8574 29.4287L27.8574 31.4287ZM35.7139 23.5713H37.7139V2.06934H35.7139H33.7139V23.5713H35.7139ZM35.7139 2.06934L36.2844 3.98624C40.6273 2.6937 45.2308 2 50 2V0V-2C44.841 -2 39.8534 -1.24935 35.1434 0.15243L35.7139 2.06934ZM67.8574 41.4287V39.4287C56.8906 39.4287 48 48.3193 48 59.2861H50H52C52 50.5285 59.0998 43.4287 67.8574 43.4287V41.4287ZM50 59.2861L48 59.2862C48.0003 70.2528 56.8909 79.1426 67.8574 79.1426V77.1426V75.1426C59.0998 75.1426 52.0002 68.0435 52 59.2861L50 59.2861ZM67.8574 77.1426L67.8575 79.1426C78.824 79.1424 87.7136 70.2526 87.7139 59.2862L85.7139 59.2861L83.7139 59.2861C83.7137 68.0435 76.6148 75.1424 67.8574 75.1426L67.8574 77.1426ZM85.7139 59.2861H87.7139C87.7139 48.3195 78.8242 39.4289 67.8575 39.4287L67.8574 41.4287L67.8574 43.4287C76.6148 43.4288 83.7139 50.5285 83.7139 59.2861H85.7139Z" fill="#007ACC" mask="url(#path-1-inside-1_566_2)"/>
<path d="M116.911 76V23.2H133.631L156.271 58.64H157.231L156.431 23.2H168.991V76H153.871L129.631 38.56H128.751L129.471 76H116.911ZM203.394 77.12C199.554 77.12 196.087 76.5333 192.994 75.36C189.9 74.1867 187.234 72.4533 184.994 70.16C182.807 67.8667 181.127 65.04 179.954 61.68C178.78 58.2667 178.194 54.32 178.194 49.84C178.194 43.5467 179.287 38.3733 181.474 34.32C183.714 30.2133 186.78 27.1467 190.674 25.12C194.567 23.0933 198.967 22.08 203.874 22.08C207.66 22.08 211.1 22.6667 214.194 23.84C217.287 25.0133 219.927 26.7467 222.114 29.04C224.354 31.3333 226.06 34.2133 227.234 37.68C228.46 41.0933 229.074 45.04 229.074 49.52C229.074 54.16 228.434 58.2133 227.154 61.68C225.927 65.0933 224.167 67.9467 221.874 70.24C219.634 72.5333 216.94 74.2667 213.794 75.44C210.647 76.56 207.18 77.12 203.394 77.12ZM203.794 67.04C206.407 67.04 208.594 66.4 210.354 65.12C212.167 63.7867 213.527 61.8933 214.434 59.44C215.394 56.9333 215.874 53.8933 215.874 50.32C215.874 46.5333 215.394 43.3333 214.434 40.72C213.474 38.0533 212.06 36.0533 210.194 34.72C208.38 33.3333 206.14 32.64 203.474 32.64C200.914 32.64 198.727 33.3067 196.914 34.64C195.154 35.92 193.794 37.84 192.834 40.4C191.874 42.9067 191.394 46 191.394 49.68C191.394 52.4533 191.66 54.9333 192.194 57.12C192.78 59.2533 193.58 61.0667 194.594 62.56C195.607 64 196.887 65.12 198.434 65.92C200.034 66.6667 201.82 67.04 203.794 67.04ZM248.929 76L231.729 23.2H245.809L257.409 65.2H258.529L270.129 23.2H284.049L266.849 76H248.929ZM279.776 76L297.696 23.2H316.576L334.496 76H320.416L307.776 33.28H306.496L293.856 76H279.776ZM290.416 66.08V57.44H325.776V66.08H290.416Z" fill="#007ACC"/>
<rect x="342" y="18" width="192" height="64" rx="10" fill="#007ACC"/>
<path d="M377.101 61.52V51.6H388.861C392.327 51.6 394.914 50.88 396.621 49.44C398.327 48 399.181 45.5733 399.181 42.16C399.181 39.1733 398.381 36.9067 396.781 35.36C395.234 33.8133 392.754 33.04 389.341 33.04H377.101V23.2H389.741C393.154 23.2 396.221 23.6 398.941 24.4C401.714 25.2 404.087 26.4 406.061 28C408.034 29.5467 409.527 31.5467 410.541 34C411.607 36.4 412.141 39.2267 412.141 42.48C412.141 46.64 411.181 50.1333 409.261 52.96C407.394 55.7867 404.594 57.92 400.861 59.36C397.181 60.8 392.567 61.52 387.021 61.52H377.101ZM367.661 76V23.2H380.541V76H367.661ZM411.933 76L429.853 23.2H448.733L466.653 76H452.573L439.933 33.28H438.653L426.013 76H411.933ZM422.572 66.08V57.44H457.933V66.08H422.572ZM480.971 76V59.76L461.211 23.2H476.731L487.211 48.24H487.691L498.171 23.2H513.531L493.931 59.6V76H480.971Z" fill="white"/>
</svg>
